HIERARCHY
ROOT Hips
{
	OFFSET 0.000000 0.000000 0.000000
	CHANNELS 6 Xposition Yposition Zposition Zrotation Yrotation Xrotation 
	JOINT LHipJoint
	{
		OFFSET 0.000000 0.000000 0.000000
		CHANNELS 3 Zrotation Yrotation Xrotation
		JOINT LeftUpLeg
		{
			OFFSET 1.363060 -1.794630 0.839290
			CHANNELS 3 Zrotation Yrotation Xrotation
			JOINT LeftLeg
			{
				OFFSET 2.448110 -6.726130 0.000000
				CHANNELS 3 Zrotation Yrotation Xrotation
				JOINT LeftFoot
				{
					OFFSET 2.562200 -7.039590 0.000000
					CHANNELS 3 Zrotation Yrotation Xrotation
					JOINT LeftToeBase
					{
						OFFSET 0.157640 -0.433110 2.322550
						CHANNELS 3 Zrotation Yrotation Xrotation
						End Site
						{
							OFFSET 0.000000 0.000000 0.000000
						}
					}
				}
			}
		}
	}
	JOINT RHipJoint
	{
		OFFSET 0.000000 0.000000 0.000000
		CHANNELS 3 Zrotation Yrotation Xrotation
		JOINT RightUpLeg
		{
			OFFSET -1.305520 -1.794630 0.839290
			CHANNELS 3 Zrotation Yrotation Xrotation
			JOINT RightLeg
			{
				OFFSET -2.542530 -6.985550 0.000000
				CHANNELS 3 Zrotation Yrotation Xrotation
				JOINT RightFoot
				{
					OFFSET -2.568260 -7.056230 0.000000
					CHANNELS 3 Zrotation Yrotation Xrotation
					JOINT RightToeBase
					{
						OFFSET -0.164730 -0.452590 2.363150
						CHANNELS 3 Zrotation Yrotation Xrotation
						End Site
						{
							OFFSET 0.000000 0.000000 0.000000
						}
					}
				}
			}
		}
	}
	JOINT LowerBack
	{
		OFFSET 0.000000 0.000000 0.000000
		CHANNELS 3 Zrotation Yrotation Xrotation
		JOINT Spine
		{
			OFFSET 0.028270 2.035590 -0.193380
			CHANNELS 3 Zrotation Yrotation Xrotation
			JOINT Spine1
			{
				OFFSET 0.056720 2.048850 -0.042750
				CHANNELS 3 Zrotation Yrotation Xrotation
				JOINT Neck
				{
					OFFSET 0.000000 0.000000 0.000000
					CHANNELS 3 Zrotation Yrotation Xrotation
					JOINT Neck1
					{
						OFFSET -0.054170 1.746240 0.172020
						CHANNELS 3 Zrotation Yrotation Xrotation
						JOINT Head
						{
							OFFSET 0.104070 1.761360 -0.123970
							CHANNELS 3 Zrotation Yrotation Xrotation
							End Site
							{
								OFFSET 0.000000 0.000000 0.000000
							}
						}
					}
				}
				JOINT LeftShoulder
				{
					OFFSET 0.000000 0.000000 0.000000
					CHANNELS 3 Zrotation Yrotation Xrotation
					JOINT LeftArm
					{
						OFFSET 3.362410 1.200890 -0.311210
						CHANNELS 3 Zrotation Yrotation Xrotation
						JOINT LeftForeArm
						{
							OFFSET 4.983000 -0.000000 -0.000000
							CHANNELS 3 Zrotation Yrotation Xrotation
							JOINT LeftHand
							{
								OFFSET 3.483560 -0.000000 -0.000000
								CHANNELS 3 Zrotation Yrotation Xrotation
								JOINT LeftFingerBase
								{
									OFFSET 0.000000 0.000000 0.000000
									CHANNELS 3 Zrotation Yrotation Xrotation
									JOINT LeftHandIndex1
									{
										OFFSET 0.715260 -0.000000 -0.000000
										CHANNELS 3 Zrotation Yrotation Xrotation
										End Site
										{
											OFFSET 0.000000 0.000000 0.000000
										}
									}
								}
								JOINT LThumb
								{
									OFFSET 0.000000 0.000000 0.000000
									CHANNELS 3 Zrotation Yrotation Xrotation
									End Site
									{
										OFFSET 0.000000 0.000000 0.000000
									}
								}
							}
						}
					}
				}
				JOINT RightShoulder
				{
					OFFSET 0.000000 0.000000 0.000000
					CHANNELS 3 Zrotation Yrotation Xrotation
					JOINT RightArm
					{
						OFFSET -3.136600 1.374050 -0.404650
						CHANNELS 3 Zrotation Yrotation Xrotation
						JOINT RightForeArm
						{
							OFFSET -5.241900 -0.000000 -0.000000
							CHANNELS 3 Zrotation Yrotation Xrotation
							JOINT RightHand
							{
								OFFSET -3.444170 -0.000000 -0.000000
								CHANNELS 3 Zrotation Yrotation Xrotation
								JOINT RightFingerBase
								{
									OFFSET 0.000000 0.000000 0.000000
									CHANNELS 3 Zrotation Yrotation Xrotation
									JOINT RightHandIndex1
									{
										OFFSET -0.622530 -0.000000 -0.000000
										CHANNELS 3 Zrotation Yrotation Xrotation
										End Site
										{
											OFFSET 0.000000 0.000000 0.000000
										}
									}
								}
								JOINT RThumb
								{
									OFFSET 0.000000 0.000000 0.000000
									CHANNELS 3 Zrotation Yrotation Xrotation
									End Site
									{
										OFFSET 0.000000 0.000000 0.000000
									}
								}
							}
						}
					}
				}
			}
		}
	}
}
MOTION
Frames: 6
Frame Time: 0.033333
-0.109606 17.309517 57.050964 92.442836 -11.266931 -56.414217 -79.559394 -55.409439 35.444089 -4.053476 5.660814 -51.179802 -64.915043 75.190020 -55.034571 -29.626221 53.949304 -28.926395 -0.189049 -0.192212 52.159902 42.287023 -0.055785 -97.667269 57.189672 -39.164686 -110.945546 81.889759 -39.041215 -78.998256 104.267034 0.279641 -41.110332 6.641178 -0.446116 -37.287135 -137.021691 77.394689 -58.360891 177.430097 64.815822 172.923389 132.082023 76.261806 133.518229 -18.823028 -49.691376 9.526186 -6.516905 -39.573803 1.470019 0.589820 -0.332000 0.421081 94.236518 60.104319 19.134066 165.424043 48.712619 121.302768 -38.648872 -5.012187 -82.391937 84.181018 -33.075137 33.508703 -76.528207 -59.129682 -3.764426 -0.529601 -0.441172 0.450491 0.497389 0.502214 -0.578207 54.369758 56.248660 81.432492 41.273793 23.139912 151.534601 24.974110 -55.525931 62.596916 48.666580 9.242866 19.262554 90.430478 34.579843 127.529248 -0.619611 0.565872 -0.602509 -0.486231 -0.609329 -0.308682 
-0.114219 17.307781 57.053444 92.727040 -11.283238 -56.416133 -79.484137 -55.196855 35.165268 -4.059129 5.605573 -51.177958 -65.777613 75.177738 -56.070729 -31.184284 53.071707 -30.338384 -0.148936 -0.258642 52.214815 42.248484 0.159843 -97.520291 57.603715 -39.049431 -111.463958 81.847916 -39.467671 -78.522806 105.411819 0.962502 -40.989706 6.670682 -0.445075 -37.306636 -136.986529 77.177100 -58.411108 177.420647 64.900695 172.935199 132.487367 76.086507 133.693434 -18.905361 -49.229428 9.752582 -6.442913 -38.693758 0.609594 0.567807 -0.350132 0.426792 93.687209 60.343852 18.762817 165.093416 48.888087 120.817673 -38.394858 -4.821255 -82.471932 81.783505 -32.333926 36.495810 -77.075730 -59.628660 -3.535354 -0.546975 -0.440704 0.477310 0.502631 0.486189 -0.577544 54.558435 56.221377 81.995097 41.225641 23.504374 151.303589 24.960822 -54.976819 63.117648 47.120513 6.573403 21.943012 93.014659 37.190613 124.069518 -0.621234 0.551974 -0.597870 -0.506601 -0.632883 -0.324159 
-0.118831 17.306046 57.055923 92.748077 -11.388717 -56.218771 -78.930552 -54.753634 34.654293 -4.170658 5.429505 -51.216435 -66.037953 75.257834 -56.117365 -32.377555 52.304775 -30.960823 -0.200520 -0.205147 52.235671 42.415587 0.394764 -97.535726 57.671615 -38.916519 -111.850017 82.412637 -40.127022 -78.813687 105.144465 0.799042 -40.158626 6.681070 -0.472194 -36.908007 -137.505062 76.906016 -59.072744 177.375890 64.846975 172.583302 132.814454 75.934737 134.102359 -19.004136 -48.102121 9.600012 -6.037809 -36.872094 -0.809735 0.592293 -0.367814 0.438068 93.309244 60.532393 18.440514 165.372255 48.940365 120.882584 -37.941324 -5.147253 -82.549104 78.437208 -32.487852 37.318875 -76.834076 -60.079654 -1.449441 -0.545674 -0.449071 0.453247 0.499040 0.497044 -0.585793 54.647523 56.277597 82.156564 41.215153 23.634789 151.081685 24.726169 -54.577925 63.540545 44.197224 6.185940 25.133735 93.851551 42.532538 120.687837 -0.624380 0.582107 -0.626114 -0.505550 -0.621927 -0.294637 
-0.123950 17.304041 57.058460 92.747131 -11.318051 -56.068816 -78.806846 -54.320010 34.399288 -4.290889 5.406315 -51.289974 -66.960915 75.637817 -56.850386 -31.358901 51.720767 -29.486853 -0.220219 -0.175194 52.255907 42.509200 0.532565 -97.756273 57.705307 -38.719767 -111.930620 82.589060 -40.398184 -78.956745 104.516919 0.459907 -39.337162 6.674499 -0.509873 -36.332654 -137.025709 76.931103 -58.407380 177.293068 64.669064 172.517093 134.427342 75.952973 135.916496 -17.679468 -47.885130 8.060854 -6.689565 -37.153738 -0.256526 0.593327 -0.340553 0.427137 93.567066 60.592946 18.405338 166.008414 49.011604 121.421591 -37.442595 -5.907058 -82.430380 78.773490 -34.266561 38.539484 -75.212083 -61.305481 -1.968296 -0.543588 -0.439846 0.476364 0.511377 0.496309 -0.585062 54.532793 56.435883 82.007588 41.519942 23.743709 150.644590 24.575865 -54.402063 64.079995 44.415751 5.168382 22.581487 98.090234 44.340821 124.952384 -0.623232 0.564110 -0.623009 -0.504728 -0.608629 -0.332795 
-0.129712 17.301527 57.060490 92.572065 -11.225231 -55.825778 -78.991314 -54.191506 34.593148 -4.332364 5.611019 -51.477446 -67.616695 76.104875 -57.196600 -29.134482 51.564876 -27.045557 -0.274652 -0.088790 52.387744 42.766240 0.577922 -97.938143 57.322976 -38.384025 -111.591256 82.613061 -40.467488 -79.272699 104.618291 0.652350 -39.052889 6.537779 -0.551332 -35.220754 -135.513808 77.009750 -56.846422 177.393734 64.643433 172.472350 135.063394 75.894458 136.544790 -16.486373 -48.049981 6.397608 -6.237424 -38.113489 0.943911 0.583857 -0.355814 0.424681 94.283152 60.638250 18.827452 166.187772 49.025387 121.897899 -37.054061 -7.031457 -82.402150 82.849538 -34.551628 35.748042 -75.232412 -62.155136 -3.469377 -0.545428 -0.453008 0.464989 0.515405 0.515721 -0.565191 54.559165 56.596960 82.139626 42.113300 24.008872 150.531625 25.267778 -54.384825 64.300139 47.229571 1.580288 21.068335 98.056082 39.618195 126.489841 -0.599721 0.580839 -0.602099 -0.494284 -0.646548 -0.317887 
-0.135979 17.298744 57.062576 92.513793 -11.204673 -55.623587 -79.167786 -54.450289 34.853032 -4.078751 5.741768 -51.551436 -68.334101 76.201116 -57.635712 -28.290210 51.821025 -26.254463 -0.314403 -0.059858 52.622472 42.979023 0.530777 -97.884339 57.061780 -38.170988 -111.321955 82.449782 -40.549655 -79.245203 104.495692 1.070173 -39.272247 6.471500 -0.610978 -34.232406 -135.767236 77.115188 -56.791734 177.782522 64.815422 173.007170 135.989051 76.134402 137.611824 -16.155888 -48.205204 5.929623 -4.628559 -37.884656 0.787248 0.611114 -0.383313 0.445715 95.166599 60.637461 19.499781 166.415149 48.961297 122.578330 -36.685072 -8.031704 -82.568688 86.701341 -35.422527 35.713005 -75.711213 -62.294884 -4.749608 -0.563822 -0.441276 0.485941 0.513277 0.470205 -0.584514 54.440805 56.721237 82.117995 42.664191 24.376940 150.666079 25.645853 -54.400373 64.676637 46.278354 0.069174 18.244774 102.334079 36.659728 129.470141 -0.622682 0.588313 -0.626130 -0.524112 -0.591701 -0.329609 
